# xmcd
#
# Track frame offsets:
#	150
#	13734
#	26150
#	39700
#	54910
#	68183
#	83297
#	97558
#	110348
#	123197
#	135438
#	148507
#	161467
#	173820
#	187725
#	201280
#	214917
#	229265
#	241833
#	256211
#	269953
#	283711
#	297820
#	312211
#	325449
#	339611
#
# Disc length: 4727 seconds
# Revision: 2
# Processed by: cddbd v1.5.2PL0 Copyright (c) Steve Scherf et al.
# Submitted via: dBpowerAMP V12.0
#
DISCID=7112751a
DTITLE=Various Artist - Roll and Tumble Blues 
DYEAR=2004
DGENRE=Blues
TTITLE0=Sylvester Weaver - Guitar Rag
TTITLE1=Jefferson, Blind Lemon - Jack O'Diamond Blues
TTITLE2=McTell, Blind Willie - Mama, ' Tain't Longfo' Day
TTITLE3=Johnson, Blind Willie - Motherless Children Have A Hard Time
TTITLE4=Nellie Florence - Midnight Weeping Blues
TTITLE5=Frank Hutchison - Worried Blues
TTITLE6=Jackson, Bo Weavil - You Can't Keep No Brown
TTITLE7=Walter Beasley - Toad Frog Blues
TTITLE8=Furry Lewis - Falling Down Blues
TTITLE9=Bobby Grant - Nappy Head Blues
TTITLE10=Riley Puckett - A Darkey's Wail
TTITLE11=Barbecue Bob - Chocolate To The Bone
TTITLE12=Ramblin' Thomas - So Lonesome
TTITLE13=Jim Thompkins - Bedside Blues
TTITLE14=Darby, Tom/Tarlton, Jimmie - Sweet Sarah Blues
TTITLE15=Newbern, Hambone Willie - Roll And Tumble Blues
TTITLE16=Lemuel Turner - Jake Bottle Blues
TTITLE17=Willie Baker - Weak Minded Blues
TTITLE18=Charlie Patton - A Spoonful Blues
TTITLE19=Charlie McCoy - Last Time Blues
TTITLE20=Frank Hutchison - K.C.Blues
TTITLE21=Son House - My Black Mama
TTITLE22=Shreveport Home Wreckers - Fence Breakin' Blues
TTITLE23=Reynolds, Blind Joe (Willie) - Cold Woman Blues
TTITLE24=Washington White - The Panama Limited
TTITLE25=Gitfiddle Jim - Paddlin' Madeline Blues
EXTD=
EXTT0=
EXTT1=
EXTT2=
EXTT3=
EXTT4=
EXTT5=
EXTT6=
EXTT7=
EXTT8=
EXTT9=
EXTT10=
EXTT11=
EXTT12=
EXTT13=
EXTT14=
EXTT15=
EXTT16=
EXTT17=
EXTT18=
EXTT19=
EXTT20=
EXTT21=
EXTT22=
EXTT23=
EXTT24=
EXTT25=
PLAYORDER=
